# Blender v2.74 (sub 0) OBJ File: ''
# www.blender.org
mtllib bl.mtl
o Cube
v 0.940150 -0.933033 -0.947039
v 0.940150 -0.933033 1.052961
v -1.059850 -0.933033 1.052960
v -1.059850 -0.933033 -0.947040
v 0.940150 1.066967 -0.947039
v 0.940149 1.066967 1.052961
v -1.059850 1.066967 1.052960
v -1.059850 1.066967 -0.947039
vn 0.000000 -1.000000 0.000000
vn 0.000000 1.000000 0.000000
vn 1.000000 0.000000 0.000000
vn -0.000000 -0.000000 1.000000
vn -1.000000 -0.000000 -0.000000
vn 0.000000 0.000000 -1.000000
usemtl Material
s off
f 1//1 2//1 3//1 4//1
f 5//2 8//2 7//2 6//2
f 1//3 5//3 6//3 2//3
f 2//4 6//4 7//4 3//4
f 3//5 7//5 8//5 4//5
f 5//6 1//6 4//6 8//6
