# Blender v2.74 (sub 0) OBJ File: ''
# www.blender.org
mtllib Tunnel.mtl
o 3______011
v 1.170000 0.343199 0.000000
v 1.170000 0.343199 -2.800000
v 1.170000 0.310000 -2.800000
v 1.170000 0.310000 0.000000
v 1.162292 0.409147 0.000000
v 1.162292 0.409147 -2.800000
v 1.146979 0.473755 0.000000
v 1.146979 0.473755 -2.800000
v 1.124270 0.536148 0.000000
v 1.124270 0.536148 -2.800000
v 1.094471 0.595483 0.000000
v 1.094471 0.595483 -2.800000
v 1.057985 0.650957 0.000000
v 1.057985 0.650957 -2.800000
v 1.015306 0.701821 0.000000
v 1.015306 0.701821 -2.800000
v 0.967010 0.747385 0.000000
v 0.967010 0.747385 -2.800000
v 0.913751 0.787035 0.000000
v 0.913751 0.787035 -2.800000
v 0.856249 0.820234 0.000000
v 0.856249 0.820234 -2.800000
v 0.795282 0.846533 0.000000
v 0.795282 0.846533 -2.800000
v 0.731674 0.865575 0.000000
v 0.731674 0.865575 -2.800000
v 0.666285 0.877105 0.000000
v 0.666285 0.877105 -2.800000
v 0.600000 0.880966 0.000000
v 0.600000 0.880966 -2.800000
v 0.533715 0.877105 0.000000
v 0.533715 0.877105 -2.800000
v 0.468326 0.865575 0.000000
v 0.468326 0.865575 -2.800000
v 0.404718 0.846533 0.000000
v 0.404718 0.846533 -2.800000
v 0.343751 0.820234 0.000000
v 0.343751 0.820234 -2.800000
v 0.286249 0.787035 0.000000
v 0.286249 0.787035 -2.800000
v 0.232990 0.747385 0.000000
v 0.232990 0.747385 -2.800000
v 0.184694 0.701821 0.000000
v 0.184694 0.701821 -2.800000
v 0.142015 0.650957 0.000000
v 0.142015 0.650957 -2.800000
v 0.105529 0.595483 0.000000
v 0.105529 0.595483 -2.800000
v 0.075730 0.536148 0.000000
v 0.075730 0.536148 -2.800000
v 0.053021 0.473755 0.000000
v 0.053021 0.473755 -2.800000
v 0.037708 0.409147 0.000000
v 0.037708 0.409147 -2.800000
v 0.030000 0.343199 0.000000
v 0.030000 0.343199 -2.800000
v 0.030000 0.310000 0.000000
v 0.030000 0.310000 -2.800000
v 0.000000 0.310000 0.000000
v 0.000000 0.310000 -2.800000
v 0.000000 0.344946 0.000000
v 0.000000 0.344946 -2.800000
v 0.008114 0.414366 0.000000
v 0.008114 0.414366 -2.800000
v 0.024232 0.482374 0.000000
v 0.024232 0.482374 -2.800000
v 0.048137 0.548051 0.000000
v 0.048137 0.548051 -2.800000
v 0.079504 0.610508 0.000000
v 0.079504 0.610508 -2.800000
v 0.117910 0.668902 0.000000
v 0.117910 0.668902 -2.800000
v 0.162836 0.722443 0.000000
v 0.162836 0.722443 -2.800000
v 0.213674 0.770406 0.000000
v 0.213674 0.770406 -2.800000
v 0.269736 0.812142 0.000000
v 0.269736 0.812142 -2.800000
v 0.330264 0.847088 0.000000
v 0.330264 0.847088 -2.800000
v 0.394440 0.874771 0.000000
v 0.394440 0.874771 -2.800000
v 0.461396 0.894816 0.000000
v 0.461396 0.894816 -2.800000
v 0.530226 0.906953 0.000000
v 0.530226 0.906953 -2.800000
v 0.600000 0.911017 0.000000
v 0.600000 0.911017 -2.800000
v 0.669774 0.906953 0.000000
v 0.669774 0.906953 -2.800000
v 0.738604 0.894816 0.000000
v 0.738604 0.894816 -2.800000
v 0.805560 0.874771 0.000000
v 0.805560 0.874771 -2.800000
v 0.869736 0.847088 0.000000
v 0.869736 0.847088 -2.800000
v 0.930264 0.812142 0.000000
v 0.930264 0.812142 -2.800000
v 0.986326 0.770406 0.000000
v 0.986326 0.770406 -2.800000
v 1.037164 0.722443 0.000000
v 1.037164 0.722443 -2.800000
v 1.082090 0.668902 0.000000
v 1.082090 0.668902 -2.800000
v 1.120496 0.610508 0.000000
v 1.120496 0.610508 -2.800000
v 1.151863 0.548051 0.000000
v 1.151863 0.548051 -2.800000
v 1.175768 0.482374 0.000000
v 1.175768 0.482374 -2.800000
v 1.191886 0.414366 0.000000
v 1.191886 0.414366 -2.800000
v 1.200000 0.344946 0.000000
v 1.200000 0.344946 -2.800000
v 1.200000 0.310000 -2.800000
v 1.200000 0.310000 0.000000
vt -0.000000 3.100000
vt -0.000000 -0.000000
vt 28.000000 -0.000000
vt 28.000000 3.100000
vt 28.000000 -5.302262
vt 28.000000 -6.000000
vt 28.000000 -6.697738
vt 28.000000 -4.613960
vt 28.000000 -7.386040
vt 28.000000 -5.337149
vt 28.000000 -6.662851
vt 28.000000 -3.944402
vt 28.000000 -8.055598
vt 28.000000 -4.683262
vt 28.000000 -7.316738
vt 28.000000 -3.302641
vt 28.000000 -8.697358
vt 28.000000 -4.047181
vt 28.000000 -7.952819
vt 28.000000 -3.437509
vt 28.000000 -8.562490
vt 28.000000 -2.697359
vt 28.000000 -9.302642
vt 28.000000 -2.862491
vt 28.000000 -9.137509
vt 28.000000 -2.136738
vt 28.000000 -9.863261
vt 28.000000 -2.329901
vt 28.000000 -9.670098
vt 28.000000 7.224428
vt 28.000000 -10.371638
vt 28.000000 -1.846944
vt 28.000000 7.018206
vt 28.000000 6.689023
vt 28.000000 6.509573
vt 28.000000 6.105084
vt 28.000000 5.954830
vt 28.000000 5.480506
vt 28.000000 5.361481
vt 28.000000 4.823736
vt 28.000000 4.737549
vt 28.000000 4.143655
vt 28.000000 4.091472
vt 28.000000 3.449460
vt 28.000000 3.431987
vt -12.000000 3.100000
vt -0.000000 -12.000000
vt -0.000000 -6.697738
vt -0.000000 -6.000000
vt -0.000000 -5.302262
vt -0.000000 -7.386040
vt -0.000000 -4.613960
vt -0.000000 -6.662851
vt -0.000000 -5.337149
vt -0.000000 -8.055598
vt -0.000000 -3.944402
vt -0.000000 -7.316738
vt -0.000000 -4.683262
vt -0.000000 -8.697358
vt -0.000000 -3.302641
vt -0.000000 -7.952819
vt -0.000000 -4.047181
vt -0.000000 -8.562490
vt -0.000000 -3.437509
vt -0.000000 -9.302642
vt -0.000000 -2.697359
vt -0.000000 -9.137509
vt -0.000000 -2.862491
vt -0.000000 -9.863261
vt -0.000000 -2.136738
vt -0.000000 -9.670098
vt -0.000000 -2.329901
vt -0.000000 -10.371638
vt -0.000000 7.224428
vt -0.000000 7.018206
vt -0.000000 -1.846944
vt -0.000000 6.689023
vt -0.000000 6.509573
vt -0.000000 6.105084
vt -0.000000 5.954830
vt -0.000000 5.480506
vt -0.000000 5.361481
vt -0.000000 4.823736
vt -0.000000 4.737549
vt -0.000000 4.143655
vt -0.000000 4.091472
vt -0.000000 3.449460
vt -0.000000 3.431987
vn 0.000000 -1.000000 0.000000
vn 0.000000 0.000000 -1.000000
vn 0.000000 0.000000 1.000000
vn -1.000000 0.000000 0.000000
vn -0.993200 0.116100 0.000000
vn -0.973000 0.230600 0.000000
vn -0.939700 0.342000 0.000000
vn -0.893600 0.448800 0.000000
vn -0.835500 0.549500 0.000000
vn -0.766000 0.642800 0.000000
vn -0.686200 0.727400 0.000000
vn -0.597200 0.802100 0.000000
vn -0.500000 0.866000 0.000000
vn -0.396100 0.918200 0.000000
vn -0.286800 0.958000 0.000000
vn -0.173600 0.984800 0.000000
vn -0.058100 0.998300 0.000000
vn 0.058100 0.998300 0.000000
vn 0.173600 0.984800 0.000000
vn 0.286800 0.958000 0.000000
vn 0.396100 0.918200 0.000000
vn 0.500000 0.866000 0.000000
vn 0.597200 0.802100 0.000000
vn 0.686200 0.727400 0.000000
vn 0.766000 0.642800 0.000000
vn 0.835500 0.549500 0.000000
vn 0.893600 0.448800 0.000000
vn 0.939700 0.342000 0.000000
vn 0.973000 0.230600 0.000000
vn 0.993200 0.116100 0.000000
vn 1.000000 0.000000 0.000000
vn -0.993200 -0.116100 0.000000
vn -0.973000 -0.230600 0.000000
vn -0.939700 -0.342000 0.000000
vn -0.893600 -0.448800 0.000000
vn -0.835500 -0.549500 0.000000
vn -0.766000 -0.642800 0.000000
vn -0.686200 -0.727400 0.000000
vn -0.597200 -0.802100 0.000000
vn -0.500000 -0.866000 0.000000
vn -0.396100 -0.918200 0.000000
vn -0.286800 -0.958000 0.000000
vn -0.173600 -0.984800 0.000000
vn -0.058100 -0.998300 0.000000
vn 0.058100 -0.998300 0.000000
vn 0.173600 -0.984800 0.000000
vn 0.286800 -0.958000 0.000000
vn 0.396100 -0.918200 0.000000
vn 0.500000 -0.866000 0.000000
vn 0.597200 -0.802100 0.000000
vn 0.686200 -0.727400 0.000000
vn 0.766000 -0.642800 0.000000
vn 0.835500 -0.549500 0.000000
vn 0.893600 -0.448800 0.000000
vn 0.939700 -0.342000 0.000000
vn 0.973000 -0.230600 0.000000
vn 0.993200 -0.116100 0.000000
usemtl Concrete_-_04
s off
f 57/1/1 59/2/1 60/3/1
f 57/1/1 60/3/1 58/4/1
f 86/5/2 88/6/2 90/7/2
f 84/8/2 86/5/2 90/7/2
f 84/8/2 90/7/2 92/9/2
f 84/8/2 92/9/2 30/6/2
f 84/8/2 30/6/2 32/10/2
f 28/11/2 30/6/2 92/9/2
f 82/12/2 84/8/2 32/10/2
f 28/11/2 92/9/2 94/13/2
f 82/12/2 32/10/2 34/14/2
f 26/15/2 28/11/2 94/13/2
f 80/16/2 82/12/2 34/14/2
f 26/15/2 94/13/2 96/17/2
f 80/16/2 34/14/2 36/18/2
f 24/19/2 26/15/2 96/17/2
f 80/16/2 36/18/2 38/20/2
f 22/21/2 24/19/2 96/17/2
f 78/22/2 80/16/2 38/20/2
f 22/21/2 96/17/2 98/23/2
f 78/22/2 38/20/2 40/24/2
f 20/25/2 22/21/2 98/23/2
f 76/26/2 78/22/2 40/24/2
f 20/25/2 98/23/2 100/27/2
f 76/26/2 40/24/2 42/28/2
f 18/29/2 20/25/2 100/27/2
f 74/30/2 76/26/2 42/28/2
f 18/29/2 100/27/2 102/31/2
f 74/30/2 42/28/2 44/32/2
f 16/33/2 18/29/2 102/31/2
f 72/34/2 74/30/2 44/32/2
f 16/33/2 102/31/2 104/34/2
f 72/34/2 44/32/2 46/35/2
f 14/35/2 16/33/2 104/34/2
f 70/36/2 72/34/2 46/35/2
f 14/35/2 104/34/2 106/36/2
f 70/36/2 46/35/2 48/37/2
f 12/37/2 14/35/2 106/36/2
f 68/38/2 70/36/2 48/37/2
f 12/37/2 106/36/2 108/38/2
f 68/38/2 48/37/2 50/39/2
f 10/39/2 12/37/2 108/38/2
f 66/40/2 68/38/2 50/39/2
f 10/39/2 108/38/2 110/40/2
f 66/40/2 50/39/2 52/41/2
f 8/41/2 10/39/2 110/40/2
f 64/42/2 66/40/2 52/41/2
f 8/41/2 110/40/2 112/42/2
f 64/42/2 52/41/2 54/43/2
f 6/43/2 8/41/2 112/42/2
f 62/44/2 64/42/2 54/43/2
f 6/43/2 112/42/2 114/44/2
f 62/44/2 54/43/2 56/45/2
f 2/45/2 6/43/2 114/44/2
f 60/3/2 62/44/2 56/45/2
f 60/3/2 56/45/2 58/4/2
f 3/4/2 2/45/2 115/46/2
f 115/46/2 2/45/2 114/44/2
f 3/4/1 115/46/1 116/47/1
f 3/4/1 116/47/1 4/1/1
f 89/48/3 87/49/3 85/50/3
f 91/51/3 89/48/3 85/50/3
f 91/51/3 85/50/3 83/52/3
f 91/51/3 83/52/3 29/49/3
f 91/51/3 29/49/3 27/53/3
f 31/54/3 29/49/3 83/52/3
f 93/55/3 91/51/3 27/53/3
f 31/54/3 83/52/3 81/56/3
f 93/55/3 27/53/3 25/57/3
f 33/58/3 31/54/3 81/56/3
f 95/59/3 93/55/3 25/57/3
f 33/58/3 81/56/3 79/60/3
f 95/59/3 25/57/3 23/61/3
f 35/62/3 33/58/3 79/60/3
f 95/59/3 23/61/3 21/63/3
f 37/64/3 35/62/3 79/60/3
f 97/65/3 95/59/3 21/63/3
f 37/64/3 79/60/3 77/66/3
f 97/65/3 21/63/3 19/67/3
f 39/68/3 37/64/3 77/66/3
f 99/69/3 97/65/3 19/67/3
f 39/68/3 77/66/3 75/70/3
f 99/69/3 19/67/3 17/71/3
f 41/72/3 39/68/3 75/70/3
f 101/73/3 99/69/3 17/71/3
f 41/72/3 75/70/3 73/74/3
f 101/73/3 17/71/3 15/75/3
f 43/76/3 41/72/3 73/74/3
f 103/77/3 101/73/3 15/75/3
f 43/76/3 73/74/3 71/77/3
f 103/77/3 15/75/3 13/78/3
f 45/78/3 43/76/3 71/77/3
f 105/79/3 103/77/3 13/78/3
f 45/78/3 71/77/3 69/79/3
f 105/79/3 13/78/3 11/80/3
f 47/80/3 45/78/3 69/79/3
f 107/81/3 105/79/3 11/80/3
f 47/80/3 69/79/3 67/81/3
f 107/81/3 11/80/3 9/82/3
f 49/82/3 47/80/3 67/81/3
f 109/83/3 107/81/3 9/82/3
f 49/82/3 67/81/3 65/83/3
f 109/83/3 9/82/3 7/84/3
f 51/84/3 49/82/3 65/83/3
f 111/85/3 109/83/3 7/84/3
f 51/84/3 65/83/3 63/85/3
f 111/85/3 7/84/3 5/86/3
f 53/86/3 51/84/3 63/85/3
f 113/87/3 111/85/3 5/86/3
f 53/86/3 63/85/3 61/87/3
f 1/88/3 113/87/3 5/86/3
f 55/88/3 53/86/3 61/87/3
f 1/88/3 116/47/3 113/87/3
f 116/47/3 1/88/3 4/1/3
f 57/1/3 55/88/3 59/2/3
f 59/2/3 55/88/3 61/87/3
usemtl Metal_-_Iron
f 59/2/4 61/87/4 62/44/4
f 59/2/4 62/44/4 60/3/4
f 61/87/5 63/85/5 64/42/5
f 61/87/5 64/42/5 62/44/5
f 63/85/6 65/83/6 66/40/6
f 63/85/6 66/40/6 64/42/6
f 65/83/7 67/81/7 68/38/7
f 65/83/7 68/38/7 66/40/7
f 67/81/8 69/79/8 70/36/8
f 67/81/8 70/36/8 68/38/8
f 69/79/9 71/77/9 72/34/9
f 69/79/9 72/34/9 70/36/9
f 71/77/10 73/74/10 74/30/10
f 71/77/10 74/30/10 72/34/10
f 73/74/11 75/70/11 76/26/11
f 73/74/11 76/26/11 74/30/11
f 75/70/12 77/66/12 78/22/12
f 75/70/12 78/22/12 76/26/12
f 77/66/13 79/60/13 80/16/13
f 77/66/13 80/16/13 78/22/13
f 79/60/14 81/56/14 82/12/14
f 79/60/14 82/12/14 80/16/14
f 81/56/15 83/52/15 84/8/15
f 81/56/15 84/8/15 82/12/15
f 83/52/16 85/50/16 86/5/16
f 83/52/16 86/5/16 84/8/16
f 85/50/17 87/49/17 88/6/17
f 85/50/17 88/6/17 86/5/17
f 87/49/18 89/48/18 90/7/18
f 87/49/18 90/7/18 88/6/18
f 89/48/19 91/51/19 92/9/19
f 89/48/19 92/9/19 90/7/19
f 91/51/20 93/55/20 94/13/20
f 91/51/20 94/13/20 92/9/20
f 93/55/21 95/59/21 96/17/21
f 93/55/21 96/17/21 94/13/21
f 95/59/22 97/65/22 98/23/22
f 95/59/22 98/23/22 96/17/22
f 97/65/23 99/69/23 100/27/23
f 97/65/23 100/27/23 98/23/23
f 99/69/24 101/73/24 102/31/24
f 99/69/24 102/31/24 100/27/24
f 101/73/25 103/77/25 104/34/25
f 101/73/25 104/34/25 102/31/25
f 103/77/26 105/79/26 106/36/26
f 103/77/26 106/36/26 104/34/26
f 105/79/27 107/81/27 108/38/27
f 105/79/27 108/38/27 106/36/27
f 107/81/28 109/83/28 110/40/28
f 107/81/28 110/40/28 108/38/28
f 109/83/29 111/85/29 112/42/29
f 109/83/29 112/42/29 110/40/29
f 111/85/30 113/87/30 114/44/30
f 111/85/30 114/44/30 112/42/30
f 113/87/31 116/47/31 115/46/31
f 113/87/31 115/46/31 114/44/31
usemtl Stucco_-_White_R
f 1/88/4 2/45/4 3/4/4
f 1/88/4 3/4/4 4/1/4
f 5/86/32 6/43/32 2/45/32
f 1/88/32 5/86/32 2/45/32
f 7/84/33 8/41/33 6/43/33
f 7/84/33 6/43/33 5/86/33
f 9/82/34 10/39/34 8/41/34
f 9/82/34 8/41/34 7/84/34
f 11/80/35 12/37/35 10/39/35
f 11/80/35 10/39/35 9/82/35
f 13/78/36 14/35/36 12/37/36
f 13/78/36 12/37/36 11/80/36
f 15/75/37 16/33/37 14/35/37
f 15/75/37 14/35/37 13/78/37
f 17/71/38 18/29/38 16/33/38
f 17/71/38 16/33/38 15/75/38
f 19/67/39 20/25/39 18/29/39
f 19/67/39 18/29/39 17/71/39
f 21/63/40 22/21/40 20/25/40
f 21/63/40 20/25/40 19/67/40
f 23/61/41 24/19/41 22/21/41
f 23/61/41 22/21/41 21/63/41
f 25/57/42 26/15/42 24/19/42
f 25/57/42 24/19/42 23/61/42
f 27/53/43 28/11/43 26/15/43
f 27/53/43 26/15/43 25/57/43
f 29/49/44 30/6/44 28/11/44
f 29/49/44 28/11/44 27/53/44
f 31/54/45 32/10/45 30/6/45
f 31/54/45 30/6/45 29/49/45
f 33/58/46 34/14/46 32/10/46
f 33/58/46 32/10/46 31/54/46
f 35/62/47 36/18/47 34/14/47
f 35/62/47 34/14/47 33/58/47
f 37/64/48 38/20/48 36/18/48
f 37/64/48 36/18/48 35/62/48
f 39/68/49 40/24/49 38/20/49
f 39/68/49 38/20/49 37/64/49
f 41/72/50 42/28/50 40/24/50
f 41/72/50 40/24/50 39/68/50
f 43/76/51 44/32/51 42/28/51
f 43/76/51 42/28/51 41/72/51
f 45/78/52 46/35/52 44/32/52
f 45/78/52 44/32/52 43/76/52
f 47/80/53 48/37/53 46/35/53
f 47/80/53 46/35/53 45/78/53
f 49/82/54 50/39/54 48/37/54
f 49/82/54 48/37/54 47/80/54
f 51/84/55 52/41/55 50/39/55
f 51/84/55 50/39/55 49/82/55
f 53/86/56 54/43/56 52/41/56
f 53/86/56 52/41/56 51/84/56
f 55/88/57 56/45/57 54/43/57
f 55/88/57 54/43/57 53/86/57
f 57/1/31 58/4/31 56/45/31
f 57/1/31 56/45/31 55/88/31
o 2______011
v 0.030000 0.000000 0.000000
v 0.030000 0.000000 -2.799821
v 0.000000 0.000000 -2.799821
v 0.000000 0.000000 0.000000
v 0.030000 0.000000 -2.799821
v 0.030000 0.000000 0.000000
v 0.030000 0.010000 0.000000
v 0.030000 0.010000 -2.799821
v 0.000000 0.000000 -2.799821
v 0.030000 0.000000 -2.799821
v 0.030000 0.010000 -2.799821
v 0.000000 0.010000 -2.799821
v 0.000000 0.000000 -2.799821
v 0.000000 0.010000 -2.799821
v 0.000000 0.010000 -2.800000
v 0.000000 -0.020000 0.000000
v 0.000000 0.000000 0.000000
v 0.000000 -0.020000 -2.800000
v 0.000000 -0.020000 0.000000
v 0.000000 -0.020000 -2.800000
v 1.200000 -0.020000 -2.800000
v 1.200000 -0.020000 0.000000
v 1.200000 -0.020000 0.000000
v 1.200000 -0.020000 -2.800000
v 1.200000 0.000000 -2.800000
v 1.200000 0.000000 0.000000
v 1.170000 0.000000 0.000000
v 1.170000 0.010000 0.000000
v 0.030000 0.010000 0.000000
v 0.030000 0.000000 0.000000
v 1.200000 -0.020000 0.000000
v 1.200000 0.000000 0.000000
v 0.000000 -0.020000 0.000000
v 0.000000 0.000000 0.000000
v 0.000000 0.010000 -2.800000
v 0.000000 0.010000 -2.799821
v 0.030000 0.010000 -2.799821
v 1.170000 0.010000 -2.800000
v 1.170000 0.010000 0.000000
v 0.030000 0.010000 0.000000
v 0.000000 0.010000 -2.800000
v 1.170000 0.010000 -2.800000
v 1.170000 0.000000 -2.800000
v 0.000000 -0.020000 -2.800000
v 1.200000 -0.020000 -2.800000
v 1.200000 0.000000 -2.800000
v 1.170000 0.000000 -2.800000
v 1.170000 0.000000 0.000000
v 1.200000 0.000000 0.000000
v 1.200000 0.000000 -2.800000
v 1.170000 0.000000 0.000000
v 1.170000 0.000000 -2.800000
v 1.170000 0.010000 -2.800000
v 1.170000 0.010000 0.000000
vt 0.000000 0.000000
vt 28.000000 0.000000
vt 28.000000 -12.000000
vt 0.000000 -12.000000
vt 27.998211 0.000000
vt 0.000000 0.100000
vt 27.998211 0.100000
vt -0.300000 0.000000
vt -0.300000 0.100000
vt 28.000000 0.100000
vt 0.000000 -0.300000
vt 27.998211 -0.300000
vt 28.000000 -11.700000
vt 0.000000 -11.700000
vt 0.000000 -0.200000
vt 28.000000 -0.200000
vt -11.700000 0.000000
vt -11.700000 0.100000
vt -12.000000 -0.200000
vt -12.000000 0.000000
vn 0.000000 -1.000000 0.000000
vn -1.000000 0.000000 0.000000
vn 0.000000 0.000000 1.000000
vn 1.000000 0.000000 0.000000
vn 0.000000 1.000000 0.000000
vn 0.000000 0.000000 -1.000000
usemtl Paint_-_Glossy_W
s off
f 135/89/58 136/90/58 137/91/58
f 135/89/58 137/91/58 138/92/58
usemtl Paint_-_Golden_O
f 121/93/59 122/89/59 123/94/59
f 121/93/59 123/94/59 124/95/59
f 125/89/60 126/96/60 127/97/60
f 125/89/60 127/97/60 128/94/60
f 167/89/61 168/90/61 169/98/61
f 167/89/61 169/98/61 170/94/61
usemtl Paint_-_Light_Gr
f 117/99/62 118/100/62 119/93/62
f 117/99/62 119/93/62 120/89/62
f 163/101/62 164/102/62 165/92/62
f 163/101/62 165/92/62 166/91/62
usemtl Stucco_-_Yellow
f 129/93/59 130/95/59 131/98/59
f 132/103/59 133/89/59 129/93/59
f 132/103/59 129/93/59 134/104/59
f 134/104/59 129/93/59 131/98/59
f 139/103/61 140/104/61 141/90/61
f 139/103/61 141/90/61 142/89/61
f 143/105/60 144/106/60 145/97/60
f 143/105/60 145/97/60 146/96/60
f 147/107/60 148/108/60 146/96/60
f 147/107/60 146/96/60 149/103/60
f 149/103/60 146/96/60 150/89/60
f 157/94/63 158/106/63 159/105/63
f 160/103/63 157/94/63 159/105/63
f 160/103/63 159/105/63 161/107/63
f 161/107/63 159/105/63 162/108/63
usemtl Wood_-_Oak_Light
f 151/90/62 152/93/62 153/100/62
f 154/101/62 151/90/62 153/100/62
f 154/101/62 153/100/62 155/102/62
f 155/102/62 153/100/62 156/99/62
o 1______011
v 0.030000 0.000000 -2.799821
v 0.030000 0.310000 -2.799821
v 0.030000 0.310000 0.000000
v 0.030000 0.000000 0.000000
v -0.000000 0.310000 -2.799821
v -0.000000 0.310000 0.000000
v 0.030000 0.310000 0.000000
v 0.030000 0.310000 -2.799821
v 0.030000 0.310000 0.000000
v -0.000000 0.310000 0.000000
v 0.000000 0.000000 0.000000
v 0.030000 0.000000 0.000000
v 0.030000 0.000000 0.000000
v 0.000000 0.000000 0.000000
v 0.000000 0.000000 -2.799821
v 0.030000 0.000000 -2.799821
v 0.000000 0.000000 -2.799821
v -0.000000 0.310000 -2.799821
v 0.030000 0.310000 -2.799821
v 0.030000 0.000000 -2.799821
v -0.000000 0.310000 -2.799821
v 0.000000 0.000000 -2.799821
v 0.000000 0.000000 0.000000
v -0.000000 0.310000 0.000000
vt 27.998211 0.000000
vt -0.000000 0.000000
vt -0.000000 0.300000
vt 27.998211 0.300000
vt 0.300000 3.100000
vt 0.000000 3.100000
vt 0.300000 -0.000000
vt 27.998211 3.100000
vn 0.000000 1.000000 0.000000
vn 0.000000 0.000000 1.000000
vn 0.000000 -1.000000 0.000000
vn 0.000000 0.000000 -1.000000
vn 1.000000 0.000000 0.000000
vn -1.000000 -0.000000 0.000000
usemtl Metal_-_Gold
s off
f 175/109/64 176/110/64 177/111/64
f 175/109/64 177/111/64 178/112/64
f 179/113/65 180/114/65 181/110/65
f 179/113/65 181/110/65 182/115/65
f 183/111/66 184/110/66 185/109/66
f 183/111/66 185/109/66 186/112/66
f 187/110/67 188/114/67 189/113/67
f 187/110/67 189/113/67 190/115/67
usemtl Stone_-_Limeston
f 171/109/68 172/116/68 173/114/68
f 171/109/68 173/114/68 174/110/68
usemtl Stucco_-_White_R
f 191/116/69 192/109/69 193/110/69
f 191/116/69 193/110/69 194/114/69
o 0______011
v 1.200000 0.000000 -2.800000
v 1.200000 0.310000 -2.800000
v 1.200000 0.310000 0.000000
v 1.200000 0.000000 0.000000
v 1.170000 0.310000 -2.800000
v 1.170000 0.310000 0.000000
v 1.200000 0.310000 0.000000
v 1.200000 0.310000 -2.800000
v 1.200000 0.310000 0.000000
v 1.170000 0.310000 0.000000
v 1.170000 0.000000 0.000000
v 1.200000 0.000000 0.000000
v 1.200000 0.000000 0.000000
v 1.170000 0.000000 0.000000
v 1.170000 0.000000 -2.800000
v 1.200000 0.000000 -2.800000
v 1.170000 0.000000 -2.800000
v 1.170000 0.310000 -2.800000
v 1.200000 0.310000 -2.800000
v 1.200000 0.000000 -2.800000
v 1.170000 0.310000 -2.800000
v 1.170000 0.000000 -2.800000
v 1.170000 0.000000 0.000000
v 1.170000 0.310000 0.000000
vt 28.000000 11.700000
vt -0.000000 11.700000
vt -0.000000 12.000000
vt 28.000000 12.000000
vt 12.000000 3.100000
vt 11.700000 3.100000
vt 11.700000 -0.000000
vt 12.000000 -0.000000
vt 28.000000 -0.000000
vt 28.000000 3.100000
vt -0.000000 3.100000
vt 0.000000 -0.000000
vn 0.000000 1.000000 0.000000
vn 0.000000 0.000000 1.000000
vn 0.000000 -1.000000 0.000000
vn 0.000000 0.000000 -1.000000
vn 1.000000 0.000000 0.000000
vn -1.000000 0.000000 0.000000
usemtl Metal_-_Gold
s off
f 199/117/70 200/118/70 201/119/70
f 199/117/70 201/119/70 202/120/70
f 203/121/71 204/122/71 205/123/71
f 203/121/71 205/123/71 206/124/71
f 207/119/72 208/118/72 209/117/72
f 207/119/72 209/117/72 210/120/72
f 211/123/73 212/122/73 213/121/73
f 211/123/73 213/121/73 214/124/73
usemtl Metal_-_Aluminiu
f 195/125/74 196/126/74 197/127/74
f 195/125/74 197/127/74 198/128/74
usemtl Stone_-_Limeston
f 215/126/75 216/125/75 217/128/75
f 215/126/75 217/128/75 218/127/75
