# Blender v2.74 (sub 0) OBJ File: ''
# www.blender.org
mtllib Star.mtl
o pCylinder1
v 7.889562 1.150329 -2.173651
v 0.033757 0.000000 -0.314657
v 2.212808 1.150329 -2.230414
v 0.068023 1.150329 -7.923502
v -2.151306 1.150329 -2.254857
v -7.817406 1.150328 -2.261558
v -3.523133 1.150328 1.888122
v -4.869315 1.150327 6.987552
v -0.006854 1.150328 4.473047
v 4.838127 1.150327 7.041885
v 3.538153 1.150329 1.927652
v 0.035668 2.269531 -0.312831
v 7.889562 1.150329 -2.173651
v 0.033757 0.000000 -0.314657
v 2.212808 1.150329 -2.230414
v 0.068023 1.150329 -7.923502
v -2.151306 1.150329 -2.254857
v -7.817406 1.150328 -2.261558
v -3.523133 1.150328 1.888122
v -4.869315 1.150327 6.987552
v -0.006854 1.150328 4.473047
v 4.838127 1.150327 7.041885
v 3.538153 1.150329 1.927652
v 0.035668 2.269531 -0.312831
v 7.889562 1.150329 -2.173651
v 0.033757 0.000000 -0.314657
v 2.212808 1.150329 -2.230414
v 0.068023 1.150329 -7.923502
v -2.151306 1.150329 -2.254857
v -7.817406 1.150328 -2.261558
v -3.523133 1.150328 1.888122
v -4.869315 1.150327 6.987552
v -0.006854 1.150328 4.473047
v 4.838127 1.150327 7.041885
v 3.538153 1.150329 1.927652
v 0.035668 2.269531 -0.312831
vt 0.375000 0.312500
vt 0.500000 0.688440
vt 0.400000 0.312500
vt 0.425000 0.312500
vt 0.450000 0.312500
vt 0.475000 0.312500
vt 0.500000 0.312500
vt 0.525000 0.312500
vt 0.550000 0.312500
vt 0.575000 0.312500
vt 0.600000 0.312500
vt 0.625000 0.312500
vt 0.626409 0.064409
vt 0.500000 0.156250
vt 0.656250 0.156250
vt 0.626409 0.248091
vt 0.548284 0.304853
vt 0.451716 0.304853
vt 0.373591 0.248091
vt 0.343750 0.156250
vt 0.373591 0.064409
vt 0.451716 0.007647
vt 0.548284 0.007647
vn 0.005100 -0.859900 -0.510500
vn 0.365100 -0.920700 -0.137600
vn -0.360200 -0.922100 -0.141000
vn 0.000600 -0.859900 -0.510500
vn -0.189600 -0.962100 0.196200
vn -0.359000 -0.928500 -0.094800
vn 0.120400 -0.965000 0.232900
vn -0.122400 -0.965300 0.230900
vn 0.363400 -0.927000 -0.092400
vn 0.188000 -0.961700 0.199500
vn 0.183400 0.963600 0.194600
vn 0.355100 0.930500 -0.090300
vn -0.119300 0.967000 0.225100
vn 0.117500 0.966800 0.227100
vn -0.350300 0.932100 -0.092500
vn -0.184900 0.964000 0.191300
vn 0.000600 0.866100 -0.499800
vn -0.351600 0.926000 -0.137700
vn 0.356800 0.924400 -0.134400
vn 0.005000 0.866100 -0.499800
usemtl initialShadingGroup
s 1
f 1/1/1 2/2/1 3/3/1
f 3/3/2 2/2/2 4/4/2
f 4/4/3 2/2/3 5/5/3
f 5/5/4 2/2/4 6/6/4
f 6/6/5 2/2/5 7/7/5
f 7/7/6 2/2/6 8/8/6
f 8/8/7 2/2/7 9/9/7
f 9/9/8 2/2/8 10/10/8
f 10/10/9 2/2/9 11/11/9
f 11/11/10 2/2/10 1/12/10
f 1/13/11 12/14/11 11/15/11
f 11/15/12 12/14/12 10/16/12
f 10/16/13 12/14/13 9/17/13
f 9/17/14 12/14/14 8/18/14
f 8/18/15 12/14/15 7/19/15
f 7/19/16 12/14/16 6/20/16
f 6/20/17 12/14/17 5/21/17
f 5/21/18 12/14/18 4/22/18
f 4/22/19 12/14/19 3/23/19
f 3/23/20 12/14/20 1/13/20
f 13/1/1 14/2/1 15/3/1
f 15/3/2 14/2/2 16/4/2
f 16/4/3 14/2/3 17/5/3
f 17/5/4 14/2/4 18/6/4
f 18/6/5 14/2/5 19/7/5
f 19/7/6 14/2/6 20/8/6
f 20/8/7 14/2/7 21/9/7
f 21/9/8 14/2/8 22/10/8
f 22/10/9 14/2/9 23/11/9
f 23/11/10 14/2/10 13/12/10
f 13/13/11 24/14/11 23/15/11
f 23/15/12 24/14/12 22/16/12
f 22/16/13 24/14/13 21/17/13
f 21/17/14 24/14/14 20/18/14
f 20/18/15 24/14/15 19/19/15
f 19/19/16 24/14/16 18/20/16
f 18/20/17 24/14/17 17/21/17
f 17/21/18 24/14/18 16/22/18
f 16/22/19 24/14/19 15/23/19
f 15/23/20 24/14/20 13/13/20
f 25/1/1 26/2/1 27/3/1
f 27/3/2 26/2/2 28/4/2
f 28/4/3 26/2/3 29/5/3
f 29/5/4 26/2/4 30/6/4
f 30/6/5 26/2/5 31/7/5
f 31/7/6 26/2/6 32/8/6
f 32/8/7 26/2/7 33/9/7
f 33/9/8 26/2/8 34/10/8
f 34/10/9 26/2/9 35/11/9
f 35/11/10 26/2/10 25/12/10
f 25/13/11 36/14/11 35/15/11
f 35/15/12 36/14/12 34/16/12
f 34/16/13 36/14/13 33/17/13
f 33/17/14 36/14/14 32/18/14
f 32/18/15 36/14/15 31/19/15
f 31/19/16 36/14/16 30/20/16
f 30/20/17 36/14/17 29/21/17
f 29/21/18 36/14/18 28/22/18
f 28/22/19 36/14/19 27/23/19
f 27/23/20 36/14/20 25/13/20
o Cube
v 1.000000 -1.000000 -1.000000
v 1.000000 -1.000000 1.000000
v -1.000000 -1.000000 1.000000
v -1.000000 -1.000000 -1.000000
v 1.000000 1.000000 -0.999999
v 0.999999 1.000000 1.000001
v -1.000000 1.000000 1.000000
v -1.000000 1.000000 -1.000000
vn 0.000000 -1.000000 0.000000
vn 0.000000 1.000000 0.000000
vn 1.000000 0.000000 0.000000
vn -0.000000 -0.000000 1.000000
vn -1.000000 -0.000000 -0.000000
vn 0.000000 0.000000 -1.000000
usemtl Material
s off
f 37//21 38//21 39//21 40//21
f 41//22 44//22 43//22 42//22
f 37//23 41//23 42//23 38//23
f 38//24 42//24 43//24 39//24
f 39//25 43//25 44//25 40//25
f 41//26 37//26 40//26 44//26
